<svg xmlns="http://www.w3.org/2000/svg" xmlns:xlink="http://www.w3.org/1999/xlink" viewBox="0 0 211.71 56.08"><defs><style>.cls-1{fill:none;}.cls-2{fill:url(#linear-gradient);}.cls-3{fill:url(#linear-gradient-2);}.cls-4{fill:url(#linear-gradient-3);}.cls-5{fill:url(#linear-gradient-4);}.cls-6{fill:url(#linear-gradient-5);}.cls-7{fill:url(#linear-gradient-6);}.cls-8{fill:url(#linear-gradient-7);}.cls-9{fill:url(#linear-gradient-8);}.cls-10{fill:url(#linear-gradient-9);}.cls-11{fill:url(#linear-gradient-10);}.cls-12{fill:url(#linear-gradient-11);}.cls-13{fill:url(#linear-gradient-12);}.cls-14{fill:url(#linear-gradient-13);}.cls-15{fill:url(#linear-gradient-14);}.cls-16{fill:url(#linear-gradient-15);}.cls-17{fill:url(#linear-gradient-16);}.cls-18{fill:url(#linear-gradient-17);}.cls-19{fill:url(#linear-gradient-18);}.cls-20{fill:url(#linear-gradient-19);}.cls-21{fill:url(#linear-gradient-20);}.cls-22{fill:url(#linear-gradient-21);}.cls-23{fill:url(#linear-gradient-22);}.cls-24{fill:url(#linear-gradient-23);}.cls-25{fill:url(#linear-gradient-24);}.cls-26{fill:url(#linear-gradient-25);}.cls-27{fill:url(#linear-gradient-26);}.cls-28{fill:url(#linear-gradient-27);}.cls-29{fill:url(#linear-gradient-28);}.cls-30{fill:url(#linear-gradient-29);}.cls-31{fill:url(#linear-gradient-30);}.cls-32{fill:url(#linear-gradient-31);}.cls-33{fill:url(#linear-gradient-32);}.cls-34{fill:url(#linear-gradient-33);}.cls-35{clip-path:url(#clip-path);}.cls-36{fill:#1ecf72;}.cls-37{fill:#1fce73;}.cls-38{fill:#20cd74;}.cls-39{fill:#21cc74;}.cls-40{fill:#22cc75;}.cls-41{fill:#23cb76;}.cls-42{fill:#24ca77;}.cls-43{fill:#25c977;}.cls-44{fill:#26c878;}.cls-45{fill:#27c779;}.cls-46{fill:#28c67a;}.cls-47{fill:#29c57a;}.cls-48{fill:#2ac57b;}.cls-49{fill:#2bc47c;}.cls-50{fill:#2cc37d;}.cls-51{fill:#2dc27d;}.cls-52{fill:#2ec17e;}.cls-53{fill:#2fc07f;}.cls-54{fill:#30bf80;}.cls-55{fill:#31be80;}.cls-56{fill:#32be81;}.cls-57{fill:#33bd82;}.cls-58{fill:#34bc83;}.cls-59{fill:#35bb83;}.cls-60{fill:#36ba84;}.cls-61{fill:#37b985;}.cls-62{fill:#38b886;}.cls-63{fill:#39b786;}.cls-64{fill:#3ab787;}.cls-65{fill:#3bb688;}.cls-66{fill:#3cb589;}.cls-67{fill:#3db489;}.cls-68{fill:#3eb38a;}.cls-69{fill:#3fb28b;}.cls-70{fill:#40b18c;}.cls-71{fill:#41b08c;}.cls-72{fill:#42b08d;}.cls-73{fill:#43af8e;}.cls-74{fill:#44ae8f;}.cls-75{fill:#45ad8f;}.cls-76{fill:#46ac90;}.cls-77{fill:#47ab91;}.cls-78{fill:#48aa92;}.cls-79{clip-path:url(#clip-path-2);}.cls-80{fill:#4da695;}.cls-81{fill:#4ea596;}.cls-82{fill:#4fa497;}.cls-83{fill:#50a398;}.cls-84{fill:#51a398;}.cls-85{fill:#52a299;}.cls-86{fill:#53a19a;}.cls-87{fill:#54a09b;}.cls-88{fill:#559f9b;}.cls-89{fill:#569e9c;}.cls-90{fill:#579d9d;}.cls-91{fill:#589c9e;}.cls-92{fill:#599c9e;}.cls-93{fill:#5a9b9f;}.cls-94{fill:#5b9aa0;}.cls-95{fill:#5c99a1;}.cls-96{fill:#5d98a1;}.cls-97{fill:#5e97a2;}.cls-98{fill:#5f96a3;}.cls-99{fill:#6095a4;}.cls-100{fill:#6295a4;}.cls-101{fill:#6394a5;}.cls-102{fill:#6493a6;}.cls-103{fill:#6592a7;}.cls-104{fill:#6691a7;}.cls-105{fill:#6790a8;}.cls-106{fill:#688fa9;}.cls-107{fill:#698eaa;}.cls-108{fill:#6a8eaa;}.cls-109{fill:#6b8dab;}.cls-110{fill:#6c8cac;}.cls-111{fill:#6d8bad;}.cls-112{fill:#6e8aad;}.cls-113{fill:#6f89ae;}.cls-114{fill:#7088af;}.cls-115{fill:#7187b0;}.cls-116{fill:#7287b0;}.cls-117{fill:#7386b1;}.cls-118{fill:#7485b2;}.cls-119{fill:#7584b3;}.cls-120{fill:#7683b3;}.cls-121{fill:#7782b4;}.cls-122{fill:#7881b5;}.cls-123{fill:#7981b6;}.cls-124{fill:#7a80b6;}.cls-125{fill:#7b7fb7;}.cls-126{fill:#7c7eb8;}.cls-127{fill:#7d7db9;}.cls-128{fill:#7e7cb9;}.cls-129{fill:#7f7bba;}.cls-130{fill:#807abb;}.cls-131{fill:#817abc;}.cls-132{fill:#8279bc;}.cls-133{fill:#8378bd;}.cls-134{fill:#8477be;}.cls-135{fill:#8576bf;}.cls-136{fill:#8675bf;}.cls-137{fill:#8774c0;}.cls-138{fill:#8873c1;}.cls-139{fill:#8973c2;}.cls-140{fill:#8a72c2;}.cls-141{fill:#8b71c3;}.cls-142{fill:#8c70c4;}.cls-143{fill:#8d6fc5;}.cls-144{fill:#8e6ec5;}.cls-145{fill:#8f6dc6;}.cls-146{fill:#906cc7;}.cls-147{fill:#916cc8;}.cls-148{fill:#926bc8;}.cls-149{fill:#936ac9;}.cls-150{fill:#9469ca;}.cls-151{fill:#9568cb;}.cls-152{fill:#9667cb;}.cls-153{fill:#9766cc;}.cls-154{fill:#9865cd;}.cls-155{fill:#9965ce;}.cls-156{fill:#9a64ce;}.cls-157{fill:#9b63cf;}.cls-158{fill:#9c62d0;}.cls-159{fill:#9d61d1;}.cls-160{fill:#9e60d1;}.cls-161{fill:#9f5fd2;}.cls-162{fill:#a05ed3;}.cls-163{fill:#a15ed4;}.cls-164{fill:#a25dd4;}.cls-165{fill:#a35cd5;}.cls-166{fill:#a45bd6;}.cls-167{clip-path:url(#clip-path-3);}.cls-168{fill:#49a992;}.cls-169{fill:#4aa993;}.cls-170{fill:#4ba894;}.cls-171{fill:#4ca795;}</style><linearGradient id="linear-gradient" x1="56.84" y1="29.91" x2="70.9" y2="29.91" gradientUnits="userSpaceOnUse"><stop offset="0" stop-color="#67f4a6"/><stop offset="0.02" stop-color="#62f1a2"/><stop offset="0.14" stop-color="#49e591"/><stop offset="0.28" stop-color="#36db83"/><stop offset="0.43" stop-color="#28d479"/><stop offset="0.63" stop-color="#20d074"/><stop offset="1" stop-color="#1ecf72"/></linearGradient><linearGradient id="linear-gradient-2" x1="73.65" y1="28.03" x2="86.13" y2="28.03" xlink:href="#linear-gradient"/><linearGradient id="linear-gradient-3" x1="89.45" y1="27.74" x2="97.45" y2="27.74" xlink:href="#linear-gradient"/><linearGradient id="linear-gradient-4" x1="99.88" y1="29.91" x2="113.95" y2="29.91" xlink:href="#linear-gradient"/><linearGradient id="linear-gradient-5" x1="116.69" y1="25.43" x2="119.18" y2="25.43" xlink:href="#linear-gradient"/><linearGradient id="linear-gradient-6" x1="121.56" y1="27.88" x2="135.88" y2="27.88" xlink:href="#linear-gradient"/><linearGradient id="linear-gradient-7" x1="137.23" y1="26.26" x2="144.92" y2="26.26" xlink:href="#linear-gradient"/><linearGradient id="linear-gradient-8" x1="147.23" y1="27.74" x2="155.23" y2="27.74" xlink:href="#linear-gradient"/><linearGradient id="linear-gradient-9" x1="156.89" y1="27.88" x2="171.03" y2="27.88" xlink:href="#linear-gradient"/><linearGradient id="linear-gradient-10" x1="173.8" y1="27.88" x2="187.73" y2="27.88" xlink:href="#linear-gradient"/><linearGradient id="linear-gradient-11" x1="56.57" y1="47" x2="61.29" y2="47" xlink:href="#linear-gradient"/><linearGradient id="linear-gradient-12" x1="63.1" y1="47" x2="67.79" y2="47" xlink:href="#linear-gradient"/><linearGradient id="linear-gradient-13" x1="69.38" y1="47" x2="75.09" y2="47" xlink:href="#linear-gradient"/><linearGradient id="linear-gradient-14" x1="76.72" y1="47" x2="82.15" y2="47" xlink:href="#linear-gradient"/><linearGradient id="linear-gradient-15" x1="84.21" y1="47" x2="89.77" y2="47" xlink:href="#linear-gradient"/><linearGradient id="linear-gradient-16" x1="91.28" y1="47" x2="92.01" y2="47" xlink:href="#linear-gradient"/><linearGradient id="linear-gradient-17" x1="94.23" y1="47" x2="99.15" y2="47" xlink:href="#linear-gradient"/><linearGradient id="linear-gradient-18" x1="101.19" y1="47" x2="106.96" y2="47" xlink:href="#linear-gradient"/><linearGradient id="linear-gradient-19" x1="113.7" y1="47" x2="118.55" y2="47" xlink:href="#linear-gradient"/><linearGradient id="linear-gradient-20" x1="120.61" y1="47.03" x2="125.41" y2="47.03" xlink:href="#linear-gradient"/><linearGradient id="linear-gradient-21" x1="127.47" y1="47" x2="132.33" y2="47" xlink:href="#linear-gradient"/><linearGradient id="linear-gradient-22" x1="134.49" y1="47" x2="135.23" y2="47" xlink:href="#linear-gradient"/><linearGradient id="linear-gradient-23" x1="137.44" y1="47" x2="142.37" y2="47" xlink:href="#linear-gradient"/><linearGradient id="linear-gradient-24" x1="144.59" y1="47" x2="148.94" y2="47" xlink:href="#linear-gradient"/><linearGradient id="linear-gradient-25" x1="150.67" y1="47" x2="155.54" y2="47" xlink:href="#linear-gradient"/><linearGradient id="linear-gradient-26" x1="157.53" y1="47" x2="162.39" y2="47" xlink:href="#linear-gradient"/><linearGradient id="linear-gradient-27" x1="169.19" y1="47" x2="175.18" y2="47" xlink:href="#linear-gradient"/><linearGradient id="linear-gradient-28" x1="177.4" y1="47" x2="181.75" y2="47" xlink:href="#linear-gradient"/><linearGradient id="linear-gradient-29" x1="183.24" y1="47" x2="187.96" y2="47" xlink:href="#linear-gradient"/><linearGradient id="linear-gradient-30" x1="189.77" y1="47" x2="194.45" y2="47" xlink:href="#linear-gradient"/><linearGradient id="linear-gradient-31" x1="196.62" y1="47" x2="197.36" y2="47" xlink:href="#linear-gradient"/><linearGradient id="linear-gradient-32" x1="199.53" y1="47" x2="204.96" y2="47" xlink:href="#linear-gradient"/><linearGradient id="linear-gradient-33" x1="206.85" y1="47" x2="211.71" y2="47" xlink:href="#linear-gradient"/><clipPath id="clip-path" transform="translate(0 0)"><path class="cls-1" d="M5,10c.34,0,.69-.06,1-.06h32.8A17.17,17.17,0,0,0,23.37,0H0A12.47,12.47,0,0,0,5,10Z"/></clipPath><clipPath id="clip-path-2" transform="translate(0 0)"><path class="cls-1" d="M0,43.62A12.5,12.5,0,0,0,12.31,56.08V22.39H0Z"/></clipPath><clipPath id="clip-path-3" transform="translate(0 0)"><path class="cls-1" d="M31,22.39H24.77V34.21A17.27,17.27,0,0,0,40.46,18,12.45,12.45,0,0,1,31,22.39Z"/></clipPath></defs><title>horizontal-logo-green</title><g id="Layer_2" data-name="Layer 2"><g id="Layer_1-2" data-name="Layer 1"><path class="cls-2" d="M69.14,32.92a6.87,6.87,0,0,1-5.26,2,7.09,7.09,0,0,1-4.56-1.48v5.1H56.84v-17h2.48v1.16a8,8,0,0,1,9.79.49,6.7,6.7,0,0,1,1.79,4.85A6.77,6.77,0,0,1,69.14,32.92Zm-1.85-8.14A4.23,4.23,0,0,0,64,23.51a4.66,4.66,0,0,0-3.43,1.25A4.37,4.37,0,0,0,59.32,28q0,4.64,4.67,4.64a4.34,4.34,0,0,0,3.34-1.3,4.7,4.7,0,0,0,1.11-3.29A4.71,4.71,0,0,0,67.29,24.78Z" transform="translate(0 0)"/><path class="cls-3" d="M83.64,34.26v-.88a7.13,7.13,0,0,1-4.06,1.12,6.8,6.8,0,0,1-4.22-1.2,4.33,4.33,0,0,1-1.71-3.67V21.57h2.48v8c0,1.8,1.15,2.69,3.45,2.69q4.07,0,4.06-3.91V21.57h2.49V34.26Z" transform="translate(0 0)"/><path class="cls-4" d="M93,25.15a6.56,6.56,0,0,0-1,3.85v5.21H89.45V21.52h2.48v1.16a9,9,0,0,1,5.52-1.42v2.2C95.24,23.46,93.74,24,93,25.15Z" transform="translate(0 0)"/><path class="cls-5" d="M112.18,32.92a6.86,6.86,0,0,1-5.25,2,7.05,7.05,0,0,1-4.56-1.48v5.1H99.88v-17h2.49v1.16a8,8,0,0,1,9.79.49A6.74,6.74,0,0,1,114,28.05,6.73,6.73,0,0,1,112.18,32.92Zm-1.85-8.14a4.22,4.22,0,0,0-3.27-1.27,4.69,4.69,0,0,0-3.44,1.25A4.4,4.4,0,0,0,102.37,28q0,4.64,4.66,4.64a4.32,4.32,0,0,0,3.34-1.3,4.7,4.7,0,0,0,1.11-3.29A4.71,4.71,0,0,0,110.33,24.78Z" transform="translate(0 0)"/><path class="cls-6" d="M116.69,34.21V16.65h2.49V34.21Z" transform="translate(0 0)"/><path class="cls-7" d="M124.1,28.87q.44,3.42,4.56,3.42a4.45,4.45,0,0,0,4.53-2.82h2.56a6.81,6.81,0,0,1-3.08,4.14,8.85,8.85,0,0,1-4.07.89,7.18,7.18,0,0,1-5.28-1.84,6.38,6.38,0,0,1-1.76-4.74,6.39,6.39,0,0,1,1.94-4.77,7.19,7.19,0,0,1,5.23-1.89,7.68,7.68,0,0,1,5.18,1.68,5.63,5.63,0,0,1,2,4.51v1.4Zm8-4.29a4.63,4.63,0,0,0-3.32-1.12,4.73,4.73,0,0,0-3.34,1.12,4,4,0,0,0-1.21,2.09h9A3.79,3.79,0,0,0,132.05,24.58Z" transform="translate(0 0)"/><path class="cls-8" d="M142.31,24.08V34.21h-2.44l-.05-10.13h-2.59V21.83h2.59V18.31h2.49v3.52h2.61v2.25Z" transform="translate(0 0)"/><path class="cls-9" d="M150.75,25.15a6.56,6.56,0,0,0-1,3.85v5.21h-2.48V21.52h2.48v1.16a9,9,0,0,1,5.52-1.42v2.2Q151.92,23.46,150.75,25.15Z" transform="translate(0 0)"/><path class="cls-10" d="M168.54,34.24V33a7.26,7.26,0,0,1-4.69,1.46,6.94,6.94,0,0,1-5.18-2,6.32,6.32,0,0,1-1.78-4.63,6.38,6.38,0,0,1,1.81-4.72A7.12,7.12,0,0,1,164,21.26a7.34,7.34,0,0,1,4.58,1.4V21.31H171V34.24Zm-1.2-9.59a4.83,4.83,0,0,0-3.51-1.19,4.33,4.33,0,0,0-3.34,1.3,4.46,4.46,0,0,0-1.12,3.16,4.26,4.26,0,0,0,1.12,3.1,4.33,4.33,0,0,0,3.34,1.27,4.71,4.71,0,0,0,3.43-1.24,4.19,4.19,0,0,0,1.28-3.13A4.42,4.42,0,0,0,167.34,24.65Z" transform="translate(0 0)"/><path class="cls-11" d="M185.06,33.54a8.08,8.08,0,0,1-4,1,7.55,7.55,0,0,1-5.25-1.77,5.89,5.89,0,0,1-2-4.63,6.48,6.48,0,0,1,2-5,7.69,7.69,0,0,1,5.5-1.89,7.39,7.39,0,0,1,3.73.91,5.67,5.67,0,0,1,2.54,3.54l-2.28,1a4.9,4.9,0,0,0-1.44-2.58,4.19,4.19,0,0,0-2.6-.71,5,5,0,0,0-3.67,1.27,4.55,4.55,0,0,0-1.28,3.37,3.92,3.92,0,0,0,1.19,3,4.91,4.91,0,0,0,3.5,1.16,5.41,5.41,0,0,0,2.73-.66,4.08,4.08,0,0,0,1.62-2.88l2.38.93A5.92,5.92,0,0,1,185.06,33.54Z" transform="translate(0 0)"/><path class="cls-12" d="M59.3,45.06V49.6h-.73V45.06h-2v-.67h4.72v.67Z" transform="translate(0 0)"/><path class="cls-13" d="M67.11,47.06a1.25,1.25,0,0,1,.6,1.14v1.4H67V48.22c0-.53-.42-.8-1.26-.8H63.84V49.6H63.1V44.39h2.68c1.34,0,2,.49,2,1.45A1.33,1.33,0,0,1,67.11,47.06Zm-1.31-2h-2v1.69h1.83a2,2,0,0,0,1-.21.74.74,0,0,0,.4-.68C67.05,45.33,66.63,45.06,65.8,45.06Z" transform="translate(0 0)"/><path class="cls-14" d="M74.29,49.6l-.75-1.53H71l-.76,1.53h-.84L72,44.39h.57l2.52,5.21Zm-2-4.12-1,1.92h1.91Z" transform="translate(0 0)"/><path class="cls-15" d="M81.53,45.86a2.25,2.25,0,0,0-.77-.66A2.54,2.54,0,0,0,79.7,45a2.35,2.35,0,0,0-1.64.54,2.06,2.06,0,0,0,0,2.9,2.21,2.21,0,0,0,1.58.54,2.5,2.5,0,0,0,1-.2,2.23,2.23,0,0,0,.81-.66l.63.38a3.34,3.34,0,0,1-4.58.44A2.44,2.44,0,0,1,76.72,47a2.52,2.52,0,0,1,.81-2,3.1,3.1,0,0,1,2.17-.73,2.89,2.89,0,0,1,2.45,1.15Z" transform="translate(0 0)"/><path class="cls-16" d="M88.72,49.6l-2.85-2.52-.93.66V49.6h-.73V44.39h.73v2.52l3.61-2.52h1.21l-3.29,2.29,3.3,2.92Z" transform="translate(0 0)"/><path class="cls-17" d="M91.28,49.6V44.39H92V49.6Z" transform="translate(0 0)"/><path class="cls-18" d="M98.48,49.6l-3.52-4v4h-.73V44.39h.66c.44.54,1,1.22,1.77,2l1.75,2v-4h.74V49.6Z" transform="translate(0 0)"/><path class="cls-19" d="M106.21,47.56H104v-.68h2.93c0,.28,0,.46,0,.56a2,2,0,0,1-.85,1.68,3.2,3.2,0,0,1-1.89.54A3.31,3.31,0,0,1,102,49a2.38,2.38,0,0,1-.85-2,2.5,2.5,0,0,1,.81-2,3.18,3.18,0,0,1,2.17-.72,3.42,3.42,0,0,1,1.68.38,2.39,2.39,0,0,1,1.07,1.67h-.75a1.72,1.72,0,0,0-.65-1,2.33,2.33,0,0,0-1.34-.33,2.43,2.43,0,0,0-1.66.53,1.88,1.88,0,0,0-.59,1.47,1.81,1.81,0,0,0,.6,1.46,2.49,2.49,0,0,0,1.69.52,2.46,2.46,0,0,0,1.41-.39A1.24,1.24,0,0,0,106.21,47.56Z" transform="translate(0 0)"/><path class="cls-20" d="M117.79,49.3a3,3,0,0,1-1.43.3H113.7V44.39h2.76a2.33,2.33,0,0,1,1.29.33,1.23,1.23,0,0,1,.63,1.12,1.18,1.18,0,0,1-.61,1,1.27,1.27,0,0,1,.78,1.23A1.31,1.31,0,0,1,117.79,49.3Zm-.48-4a1.79,1.79,0,0,0-.86-.19h-2v1.5h2a1.69,1.69,0,0,0,.86-.19.64.64,0,0,0,0-1.12Zm.12,2.19a2.21,2.21,0,0,0-1-.2h-2v1.7h2a1.88,1.88,0,0,0,1-.21.73.73,0,0,0,0-1.29Z" transform="translate(0 0)"/><path class="cls-21" d="M124.76,49.19a2.77,2.77,0,0,1-1.75.47c-1.6,0-2.4-.69-2.4-2.06V44.39h.74V47.6a1.3,1.3,0,0,0,.4,1A1.88,1.88,0,0,0,123,49a2,2,0,0,0,1.27-.35,1.24,1.24,0,0,0,.39-1V44.39h.74v3.22A1.9,1.9,0,0,1,124.76,49.19Z" transform="translate(0 0)"/><path class="cls-22" d="M130,49.66a3.56,3.56,0,0,1-1.71-.36,1.52,1.52,0,0,1-.84-1.44v-.34h.74v.32c0,.77.61,1.15,1.82,1.15a2.71,2.71,0,0,0,1.07-.18.67.67,0,0,0,.49-.63.59.59,0,0,0-.15-.44,1.36,1.36,0,0,0-.55-.24c-.15,0-.51-.12-1.08-.23a6.11,6.11,0,0,1-1.37-.38,1.22,1.22,0,0,1-.8-1.14c0-.94.75-1.41,2.23-1.41s2.33.63,2.35,1.9h-.72c0-.54-.19-.89-.48-1a2.58,2.58,0,0,0-1.15-.2c-1,0-1.49.25-1.49.74a.56.56,0,0,0,.35.53,4.38,4.38,0,0,0,1,.27,7,7,0,0,1,1.92.51,1.27,1.27,0,0,1-.17,2.3A3.41,3.41,0,0,1,130,49.66Z" transform="translate(0 0)"/><path class="cls-23" d="M134.49,49.6V44.39h.74V49.6Z" transform="translate(0 0)"/><path class="cls-24" d="M141.7,49.6l-3.52-4v4h-.74V44.39h.66c.45.54,1,1.22,1.78,2l1.75,2v-4h.74V49.6Z" transform="translate(0 0)"/><path class="cls-25" d="M144.59,49.6V44.39h4.31v.67h-3.58v1.5h3.17v.67h-3.17v1.71h3.62v.66Z" transform="translate(0 0)"/><path class="cls-26" d="M153.22,49.66a3.54,3.54,0,0,1-1.7-.36,1.51,1.51,0,0,1-.85-1.44v-.34h.75v.32c0,.77.6,1.15,1.81,1.15a2.77,2.77,0,0,0,1.08-.18.69.69,0,0,0,.49-.63.55.55,0,0,0-.16-.44,1.37,1.37,0,0,0-.54-.24L153,47.27a6.24,6.24,0,0,1-1.38-.38,1.21,1.21,0,0,1-.79-1.14c0-.94.74-1.41,2.23-1.41s2.33.63,2.35,1.9h-.72c0-.54-.2-.89-.48-1a2.61,2.61,0,0,0-1.15-.2c-1,0-1.49.25-1.49.74a.55.55,0,0,0,.35.53,4.27,4.27,0,0,0,1,.27,6.93,6.93,0,0,1,1.92.51,1.23,1.23,0,0,1,.66,1.14,1.24,1.24,0,0,1-.83,1.16A3.38,3.38,0,0,1,153.22,49.66Z" transform="translate(0 0)"/><path class="cls-27" d="M160.08,49.66a3.56,3.56,0,0,1-1.71-.36,1.52,1.52,0,0,1-.84-1.44v-.34h.74v.32c0,.77.61,1.15,1.81,1.15a2.73,2.73,0,0,0,1.08-.18.67.67,0,0,0,.49-.63.59.59,0,0,0-.15-.44,1.43,1.43,0,0,0-.55-.24c-.15,0-.51-.12-1.08-.23a6.42,6.42,0,0,1-1.38-.38,1.22,1.22,0,0,1-.79-1.14c0-.94.75-1.41,2.23-1.41s2.33.63,2.35,1.9h-.72c0-.54-.19-.89-.48-1a2.58,2.58,0,0,0-1.15-.2c-1,0-1.49.25-1.49.74a.56.56,0,0,0,.35.53,4.38,4.38,0,0,0,1,.27,7,7,0,0,1,1.92.51,1.27,1.27,0,0,1-.17,2.3A3.41,3.41,0,0,1,160.08,49.66Z" transform="translate(0 0)"/><path class="cls-28" d="M174.44,49.6V45.93l-2,3.67h-.53l-2-3.67V49.6h-.74V44.39h.72l2.27,4.19,2.27-4.19h.73V49.6Z" transform="translate(0 0)"/><path class="cls-29" d="M177.4,49.6V44.39h4.31v.67h-3.58v1.5h3.18v.67h-3.18v1.71h3.62v.66Z" transform="translate(0 0)"/><path class="cls-30" d="M186,45.06V49.6h-.74V45.06h-2v-.67H188v.67Z" transform="translate(0 0)"/><path class="cls-31" d="M193.78,47.06a1.25,1.25,0,0,1,.6,1.14v1.4h-.74V48.22c0-.53-.42-.8-1.26-.8H190.5V49.6h-.73V44.39h2.68c1.34,0,2,.49,2,1.45A1.32,1.32,0,0,1,193.78,47.06Zm-1.32-2h-2v1.69h1.84a2,2,0,0,0,1-.21.76.76,0,0,0,.4-.68C193.72,45.33,193.3,45.06,192.46,45.06Z" transform="translate(0 0)"/><path class="cls-32" d="M196.62,49.6V44.39h.74V49.6Z" transform="translate(0 0)"/><path class="cls-33" d="M204.34,45.86a2.25,2.25,0,0,0-.77-.66,2.54,2.54,0,0,0-1.06-.19,2.35,2.35,0,0,0-1.64.54,2.06,2.06,0,0,0,0,2.9,2.21,2.21,0,0,0,1.58.54,2.5,2.5,0,0,0,1-.2,2.23,2.23,0,0,0,.81-.66l.63.38a3.34,3.34,0,0,1-4.58.44,2.44,2.44,0,0,1-.79-1.91,2.52,2.52,0,0,1,.81-2,3.1,3.1,0,0,1,2.17-.73A2.89,2.89,0,0,1,205,45.49Z" transform="translate(0 0)"/><path class="cls-34" d="M209.4,49.66a3.56,3.56,0,0,1-1.71-.36,1.52,1.52,0,0,1-.84-1.44v-.34h.74v.32c0,.77.61,1.15,1.82,1.15a2.68,2.68,0,0,0,1.07-.18.67.67,0,0,0,.49-.63.59.59,0,0,0-.15-.44,1.36,1.36,0,0,0-.55-.24c-.15,0-.51-.12-1.08-.23a6.11,6.11,0,0,1-1.37-.38,1.22,1.22,0,0,1-.8-1.14c0-.94.75-1.41,2.23-1.41s2.33.63,2.35,1.9h-.72c0-.54-.19-.89-.47-1a2.65,2.65,0,0,0-1.16-.2c-1,0-1.49.25-1.49.74a.55.55,0,0,0,.36.53,4.13,4.13,0,0,0,1,.27,7,7,0,0,1,1.92.51,1.27,1.27,0,0,1-.17,2.3A3.41,3.41,0,0,1,209.4,49.66Z" transform="translate(0 0)"/><g class="cls-35"><polygon class="cls-36" points="22.07 9.98 10.14 0 38.88 0 38.88 9.98 22.07 9.98"/><polygon class="cls-36" points="21.55 9.98 9.62 0 10.14 0 22.07 9.98 21.55 9.98"/><polygon class="cls-37" points="21.03 9.98 9.11 0 9.62 0 21.55 9.98 21.03 9.98"/><polygon class="cls-38" points="20.52 9.98 8.59 0 9.11 0 21.03 9.98 20.52 9.98"/><polygon class="cls-39" points="20 9.98 8.07 0 8.59 0 20.52 9.98 20 9.98"/><polygon class="cls-40" points="19.48 9.98 7.56 0 8.07 0 20 9.98 19.48 9.98"/><polygon class="cls-41" points="18.96 9.98 7.04 0 7.56 0 19.48 9.98 18.96 9.98"/><polygon class="cls-42" points="18.45 9.98 6.52 0 7.04 0 18.96 9.98 18.45 9.98"/><polygon class="cls-43" points="17.93 9.98 6 0 6.52 0 18.45 9.98 17.93 9.98"/><polygon class="cls-44" points="17.41 9.98 5.49 0 6 0 17.93 9.98 17.41 9.98"/><polygon class="cls-45" points="16.9 9.98 4.97 0 5.49 0 17.41 9.98 16.9 9.98"/><polygon class="cls-46" points="16.38 9.98 4.45 0 4.97 0 16.9 9.98 16.38 9.98"/><polygon class="cls-47" points="15.86 9.98 3.94 0 4.45 0 16.38 9.98 15.86 9.98"/><polygon class="cls-48" points="15.34 9.98 3.42 0 3.94 0 15.86 9.98 15.34 9.98"/><polygon class="cls-49" points="14.83 9.98 2.9 0 3.42 0 15.34 9.98 14.83 9.98"/><polygon class="cls-50" points="14.31 9.98 2.38 0 2.9 0 14.83 9.98 14.31 9.98"/><polygon class="cls-51" points="13.79 9.98 1.87 0 2.38 0 14.31 9.98 13.79 9.98"/><polygon class="cls-52" points="13.28 9.98 1.35 0 1.87 0 13.79 9.98 13.28 9.98"/><polygon class="cls-53" points="12.76 9.98 0.83 0 1.35 0 13.28 9.98 12.76 9.98"/><polygon class="cls-54" points="12.24 9.98 0.32 0 0.83 0 12.76 9.98 12.24 9.98"/><polygon class="cls-55" points="11.72 9.98 0 0.17 0 0 0.32 0 12.24 9.98 11.72 9.98"/><polygon class="cls-56" points="11.21 9.98 0 0.6 0 0.17 11.72 9.98 11.21 9.98"/><polygon class="cls-57" points="10.69 9.98 0 1.03 0 0.6 11.21 9.98 10.69 9.98"/><polygon class="cls-58" points="10.17 9.98 0 1.47 0 1.03 10.69 9.98 10.17 9.98"/><polygon class="cls-59" points="9.65 9.98 0 1.9 0 1.47 10.17 9.98 9.65 9.98"/><polygon class="cls-60" points="9.14 9.98 0 2.33 0 1.9 9.65 9.98 9.14 9.98"/><polygon class="cls-61" points="8.62 9.98 0 2.77 0 2.33 9.14 9.98 8.62 9.98"/><polygon class="cls-62" points="8.1 9.98 0 3.2 0 2.77 8.62 9.98 8.1 9.98"/><polygon class="cls-63" points="7.59 9.98 0 3.63 0 3.2 8.1 9.98 7.59 9.98"/><polygon class="cls-64" points="7.07 9.98 0 4.06 0 3.63 7.59 9.98 7.07 9.98"/><polygon class="cls-65" points="6.55 9.98 0 4.5 0 4.06 7.07 9.98 6.55 9.98"/><polygon class="cls-66" points="6.04 9.98 0 4.93 0 4.5 6.55 9.98 6.04 9.98"/><polygon class="cls-67" points="5.52 9.98 0 5.36 0 4.93 6.04 9.98 5.52 9.98"/><polygon class="cls-68" points="5 9.98 0 5.79 0 5.36 5.52 9.98 5 9.98"/><polygon class="cls-69" points="4.48 9.98 0 6.23 0 5.79 5 9.98 4.48 9.98"/><polygon class="cls-70" points="3.97 9.98 0 6.66 0 6.23 4.48 9.98 3.97 9.98"/><polygon class="cls-71" points="3.45 9.98 0 7.09 0 6.66 3.97 9.98 3.45 9.98"/><polygon class="cls-72" points="2.93 9.98 0 7.52 0 7.09 3.45 9.98 2.93 9.98"/><polygon class="cls-73" points="2.42 9.98 0 7.96 0 7.52 2.93 9.98 2.42 9.98"/><polygon class="cls-74" points="1.9 9.98 0 8.39 0 7.96 2.42 9.98 1.9 9.98"/><polygon class="cls-75" points="1.38 9.98 0 8.82 0 8.39 1.9 9.98 1.38 9.98"/><polygon class="cls-76" points="0.86 9.98 0 9.25 0 8.82 1.38 9.98 0.86 9.98"/><polygon class="cls-77" points="0.35 9.98 0 9.69 0 9.25 0.86 9.98 0.35 9.98"/><polygon class="cls-78" points="0 9.69 0.35 9.98 0 9.98 0 9.69"/></g><g class="cls-79"><polygon class="cls-80" points="12.31 22.58 12.08 22.39 12.31 22.39 12.31 22.58"/><polygon class="cls-81" points="12.31 23.01 11.56 22.39 12.08 22.39 12.31 22.58 12.31 23.01"/><polygon class="cls-82" points="12.31 23.44 11.05 22.39 11.56 22.39 12.31 23.01 12.31 23.44"/><polygon class="cls-83" points="12.31 23.88 10.53 22.39 11.05 22.39 12.31 23.44 12.31 23.88"/><polygon class="cls-84" points="12.31 24.31 10.01 22.39 10.53 22.39 12.31 23.88 12.31 24.31"/><polygon class="cls-85" points="12.31 24.74 9.49 22.39 10.01 22.39 12.31 24.31 12.31 24.74"/><polygon class="cls-86" points="12.31 25.18 8.98 22.39 9.49 22.39 12.31 24.74 12.31 25.18"/><polygon class="cls-87" points="12.31 25.61 8.46 22.39 8.98 22.39 12.31 25.18 12.31 25.61"/><polygon class="cls-88" points="12.31 26.04 7.94 22.39 8.46 22.39 12.31 25.61 12.31 26.04"/><polygon class="cls-89" points="12.31 26.47 7.43 22.39 7.94 22.39 12.31 26.04 12.31 26.47"/><polygon class="cls-90" points="12.31 26.91 6.91 22.39 7.43 22.39 12.31 26.47 12.31 26.91"/><polygon class="cls-91" points="12.31 27.34 6.39 22.39 6.91 22.39 12.31 26.91 12.31 27.34"/><polygon class="cls-92" points="12.31 27.77 5.87 22.39 6.39 22.39 12.31 27.34 12.31 27.77"/><polygon class="cls-93" points="12.31 28.2 5.36 22.39 5.87 22.39 12.31 27.77 12.31 28.2"/><polygon class="cls-94" points="12.31 28.64 4.84 22.39 5.36 22.39 12.31 28.2 12.31 28.64"/><polygon class="cls-95" points="12.31 29.07 4.32 22.39 4.84 22.39 12.31 28.64 12.31 29.07"/><polygon class="cls-96" points="12.31 29.5 3.81 22.39 4.32 22.39 12.31 29.07 12.31 29.5"/><polygon class="cls-97" points="12.31 29.93 3.29 22.39 3.81 22.39 12.31 29.5 12.31 29.93"/><polygon class="cls-98" points="12.31 30.37 2.77 22.39 3.29 22.39 12.31 29.93 12.31 30.37"/><polygon class="cls-99" points="12.31 30.8 2.25 22.39 2.77 22.39 12.31 30.37 12.31 30.8"/><polygon class="cls-100" points="12.31 31.23 1.74 22.39 2.25 22.39 12.31 30.8 12.31 31.23"/><polygon class="cls-101" points="12.31 31.66 1.22 22.39 1.74 22.39 12.31 31.23 12.31 31.66"/><polygon class="cls-102" points="12.31 32.1 0.7 22.39 1.22 22.39 12.31 31.66 12.31 32.1"/><polygon class="cls-103" points="12.31 32.53 0.18 22.39 0.7 22.39 12.31 32.1 12.31 32.53"/><polygon class="cls-104" points="12.31 32.96 0 22.67 0 22.39 0.18 22.39 12.31 32.53 12.31 32.96"/><polygon class="cls-105" points="12.31 33.4 0 23.1 0 22.67 12.31 32.96 12.31 33.4"/><polygon class="cls-106" points="12.31 33.83 0 23.53 0 23.1 12.31 33.4 12.31 33.83"/><polygon class="cls-107" points="12.31 34.26 0 23.96 0 23.53 12.31 33.83 12.31 34.26"/><polygon class="cls-108" points="12.31 34.69 0 24.4 0 23.96 12.31 34.26 12.31 34.69"/><polygon class="cls-109" points="12.31 35.13 0 24.83 0 24.4 12.31 34.69 12.31 35.13"/><polygon class="cls-110" points="12.31 35.56 0 25.26 0 24.83 12.31 35.13 12.31 35.56"/><polygon class="cls-111" points="12.31 35.99 0 25.7 0 25.26 12.31 35.56 12.31 35.99"/><polygon class="cls-112" points="12.31 36.42 0 26.13 0 25.7 12.31 35.99 12.31 36.42"/><polygon class="cls-113" points="12.31 36.86 0 26.56 0 26.13 12.31 36.42 12.31 36.86"/><polygon class="cls-114" points="12.31 37.29 0 26.99 0 26.56 12.31 36.86 12.31 37.29"/><polygon class="cls-115" points="12.31 37.72 0 27.43 0 26.99 12.31 37.29 12.31 37.72"/><polygon class="cls-116" points="12.31 38.15 0 27.86 0 27.43 12.31 37.72 12.31 38.15"/><polygon class="cls-117" points="12.31 38.59 0 28.29 0 27.86 12.31 38.15 12.31 38.59"/><polygon class="cls-118" points="12.31 39.02 0 28.72 0 28.29 12.31 38.59 12.31 39.02"/><polygon class="cls-119" points="12.31 39.45 0 29.16 0 28.72 12.31 39.02 12.31 39.45"/><polygon class="cls-120" points="12.31 39.88 0 29.59 0 29.16 12.31 39.45 12.31 39.88"/><polygon class="cls-121" points="12.31 40.32 0 30.02 0 29.59 12.31 39.88 12.31 40.32"/><polygon class="cls-122" points="12.31 40.75 0 30.45 0 30.02 12.31 40.32 12.31 40.75"/><polygon class="cls-123" points="12.31 41.18 0 30.89 0 30.45 12.31 40.75 12.31 41.18"/><polygon class="cls-124" points="12.31 41.62 0 31.32 0 30.89 12.31 41.18 12.31 41.62"/><polygon class="cls-125" points="12.31 42.05 0 31.75 0 31.32 12.31 41.62 12.31 42.05"/><polygon class="cls-126" points="12.31 42.48 0 32.18 0 31.75 12.31 42.05 12.31 42.48"/><polygon class="cls-127" points="12.31 42.91 0 32.62 0 32.18 12.31 42.48 12.31 42.91"/><polygon class="cls-128" points="12.31 43.34 0 33.05 0 32.62 12.31 42.91 12.31 43.34"/><polygon class="cls-129" points="12.31 43.78 0 33.48 0 33.05 12.31 43.34 12.31 43.78"/><polygon class="cls-130" points="12.31 44.21 0 33.91 0 33.48 12.31 43.78 12.31 44.21"/><polygon class="cls-131" points="12.31 44.64 0 34.35 0 33.91 12.31 44.21 12.31 44.64"/><polygon class="cls-132" points="12.31 45.08 0 34.78 0 34.35 12.31 44.64 12.31 45.08"/><polygon class="cls-133" points="12.31 45.51 0 35.21 0 34.78 12.31 45.08 12.31 45.51"/><polygon class="cls-134" points="12.31 45.94 0 35.65 0 35.21 12.31 45.51 12.31 45.94"/><polygon class="cls-135" points="12.31 46.37 0 36.08 0 35.65 12.31 45.94 12.31 46.37"/><polygon class="cls-136" points="12.31 46.81 0 36.51 0 36.08 12.31 46.37 12.31 46.81"/><polygon class="cls-137" points="12.31 47.24 0 36.94 0 36.51 12.31 46.81 12.31 47.24"/><polygon class="cls-138" points="12.31 47.67 0 37.38 0 36.94 12.31 47.24 12.31 47.67"/><polygon class="cls-139" points="12.31 48.1 0 37.81 0 37.38 12.31 47.67 12.31 48.1"/><polygon class="cls-140" points="12.31 48.54 0 38.24 0 37.81 12.31 48.1 12.31 48.54"/><polygon class="cls-141" points="12.31 48.97 0 38.67 0 38.24 12.31 48.54 12.31 48.97"/><polygon class="cls-142" points="12.31 49.4 0 39.11 0 38.67 12.31 48.97 12.31 49.4"/><polygon class="cls-143" points="12.31 49.84 0 39.54 0 39.11 12.31 49.4 12.31 49.84"/><polygon class="cls-144" points="12.31 50.27 0 39.97 0 39.54 12.31 49.84 12.31 50.27"/><polygon class="cls-145" points="12.31 50.7 0 40.41 0 39.97 12.31 50.27 12.31 50.7"/><polygon class="cls-146" points="12.31 51.13 0 40.84 0 40.41 12.31 50.7 12.31 51.13"/><polygon class="cls-147" points="12.31 51.57 0 41.27 0 40.84 12.31 51.13 12.31 51.57"/><polygon class="cls-148" points="12.31 52 0 41.7 0 41.27 12.31 51.57 12.31 52"/><polygon class="cls-149" points="12.31 52.43 0 42.13 0 41.7 12.31 52 12.31 52.43"/><polygon class="cls-150" points="12.31 52.86 0 42.57 0 42.13 12.31 52.43 12.31 52.86"/><polygon class="cls-151" points="12.31 53.3 0 43 0 42.57 12.31 52.86 12.31 53.3"/><polygon class="cls-152" points="12.31 53.73 0 43.43 0 43 12.31 53.3 12.31 53.73"/><polygon class="cls-153" points="12.31 54.16 0 43.87 0 43.43 12.31 53.73 12.31 54.16"/><polygon class="cls-154" points="12.31 54.59 0 44.3 0 43.87 12.31 54.16 12.31 54.59"/><polygon class="cls-155" points="12.31 55.03 0 44.73 0 44.3 12.31 54.59 12.31 55.03"/><polygon class="cls-156" points="12.31 55.46 0 45.16 0 44.73 12.31 55.03 12.31 55.46"/><polygon class="cls-157" points="12.31 55.89 0 45.6 0 45.16 12.31 55.46 12.31 55.89"/><polygon class="cls-158" points="12.01 56.08 0 46.03 0 45.6 12.31 55.89 12.31 56.08 12.01 56.08"/><polygon class="cls-159" points="11.5 56.08 0 46.46 0 46.03 12.01 56.08 11.5 56.08"/><polygon class="cls-160" points="10.98 56.08 0 46.89 0 46.46 11.5 56.08 10.98 56.08"/><polygon class="cls-161" points="10.46 56.08 0 47.33 0 46.89 10.98 56.08 10.46 56.08"/><polygon class="cls-162" points="9.95 56.08 0 47.76 0 47.33 10.46 56.08 9.95 56.08"/><polygon class="cls-163" points="9.43 56.08 0 48.19 0 47.76 9.95 56.08 9.43 56.08"/><polygon class="cls-164" points="8.91 56.08 0 48.63 0 48.19 9.43 56.08 8.91 56.08"/><polygon class="cls-165" points="8.39 56.08 0 49.06 0 48.63 8.91 56.08 8.39 56.08"/><polygon class="cls-166" points="7.88 56.08 0 49.49 0 49.06 8.39 56.08 7.88 56.08"/><polygon class="cls-166" points="0 49.49 7.88 56.08 0 56.08 0 49.49"/></g><g class="cls-167"><polygon class="cls-36" points="40.46 25.36 31.67 18.01 40.46 18.01 40.46 25.36"/><polygon class="cls-36" points="40.46 25.8 31.15 18.01 31.67 18.01 40.46 25.36 40.46 25.8"/><polygon class="cls-37" points="40.46 26.23 30.63 18.01 31.15 18.01 40.46 25.8 40.46 26.23"/><polygon class="cls-38" points="40.46 26.66 30.11 18.01 30.63 18.01 40.46 26.23 40.46 26.66"/><polygon class="cls-39" points="40.46 27.09 29.6 18.01 30.11 18.01 40.46 26.66 40.46 27.09"/><polygon class="cls-40" points="40.46 27.53 29.08 18.01 29.6 18.01 40.46 27.09 40.46 27.53"/><polygon class="cls-41" points="40.46 27.96 28.56 18.01 29.08 18.01 40.46 27.53 40.46 27.96"/><polygon class="cls-42" points="40.46 28.39 28.05 18.01 28.56 18.01 40.46 27.96 40.46 28.39"/><polygon class="cls-43" points="40.46 28.45 40.28 28.67 27.53 18.01 28.05 18.01 40.46 28.39 40.46 28.45"/><polygon class="cls-44" points="40.28 28.67 40.06 28.92 27.01 18.01 27.53 18.01 40.28 28.67"/><polygon class="cls-45" points="40.06 28.92 39.85 29.18 26.49 18.01 27.01 18.01 40.06 28.92"/><polygon class="cls-46" points="39.85 29.18 39.64 29.43 26.22 18.21 26.39 18.01 26.49 18.01 39.85 29.18"/><rect class="cls-47" x="32.66" y="15.21" width="0.33" height="17.49" transform="translate(-6.61 33.76) rotate(-50.09)"/><rect class="cls-48" x="32.44" y="15.46" width="0.33" height="17.49" transform="translate(-6.88 33.69) rotate(-50.09)"/><rect class="cls-49" x="32.23" y="15.71" width="0.33" height="17.49" transform="translate(-7.15 33.61) rotate(-50.09)"/><rect class="cls-50" x="32.02" y="15.97" width="0.33" height="17.49" transform="translate(-7.42 33.54) rotate(-50.09)"/><rect class="cls-51" x="31.81" y="16.22" width="0.33" height="17.49" transform="translate(-7.69 33.47) rotate(-50.09)"/><rect class="cls-52" x="31.59" y="16.48" width="0.33" height="17.49" transform="translate(-7.96 33.4) rotate(-50.09)"/><polygon class="cls-53" points="38.36 30.96 38.15 31.21 24.77 20.03 24.77 19.95 24.95 19.74 38.36 30.96"/><polygon class="cls-54" points="38.15 31.21 37.93 31.47 24.77 20.46 24.77 20.03 38.15 31.21"/><polygon class="cls-55" points="37.93 31.47 37.72 31.72 24.77 20.89 24.77 20.46 37.93 31.47"/><polygon class="cls-56" points="37.72 31.72 37.51 31.98 24.77 21.32 24.77 20.89 37.72 31.72"/><polygon class="cls-57" points="37.51 31.98 37.3 32.23 24.77 21.76 24.77 21.32 37.51 31.98"/><polygon class="cls-58" points="37.3 32.23 37.08 32.49 24.77 22.19 24.77 21.76 37.3 32.23"/><polygon class="cls-59" points="37.08 32.49 36.87 32.74 24.77 22.62 24.77 22.19 37.08 32.49"/><polygon class="cls-60" points="36.87 32.74 36.66 33 24.77 23.05 24.77 22.62 36.87 32.74"/><polygon class="cls-61" points="36.66 33 36.44 33.25 24.77 23.49 24.77 23.05 36.66 33"/><polygon class="cls-62" points="36.44 33.25 36.23 33.51 24.77 23.92 24.77 23.49 36.44 33.25"/><polygon class="cls-63" points="36.23 33.51 36.02 33.76 24.77 24.35 24.77 23.92 36.23 33.51"/><polygon class="cls-64" points="36.02 33.76 35.8 34.02 24.77 24.79 24.77 24.35 36.02 33.76"/><polygon class="cls-65" points="35.8 34.02 35.64 34.21 35.52 34.21 24.77 25.22 24.77 24.79 35.8 34.02"/><polygon class="cls-66" points="35 34.21 24.77 25.65 24.77 25.22 35.52 34.21 35 34.21"/><polygon class="cls-67" points="34.49 34.21 24.77 26.08 24.77 25.65 35 34.21 34.49 34.21"/><polygon class="cls-68" points="33.97 34.21 24.77 26.52 24.77 26.08 34.49 34.21 33.97 34.21"/><polygon class="cls-69" points="33.45 34.21 24.77 26.95 24.77 26.52 33.97 34.21 33.45 34.21"/><polygon class="cls-70" points="32.94 34.21 24.77 27.38 24.77 26.95 33.45 34.21 32.94 34.21"/><polygon class="cls-71" points="32.42 34.21 24.77 27.81 24.77 27.38 32.94 34.21 32.42 34.21"/><polygon class="cls-72" points="31.9 34.21 24.77 28.25 24.77 27.81 32.42 34.21 31.9 34.21"/><polygon class="cls-73" points="31.38 34.21 24.77 28.68 24.77 28.25 31.9 34.21 31.38 34.21"/><polygon class="cls-74" points="30.87 34.21 24.77 29.11 24.77 28.68 31.38 34.21 30.87 34.21"/><polygon class="cls-75" points="30.35 34.21 24.77 29.54 24.77 29.11 30.87 34.21 30.35 34.21"/><polygon class="cls-76" points="29.83 34.21 24.77 29.98 24.77 29.54 30.35 34.21 29.83 34.21"/><polygon class="cls-77" points="29.32 34.21 24.77 30.41 24.77 29.98 29.83 34.21 29.32 34.21"/><polygon class="cls-78" points="28.8 34.21 24.77 30.84 24.77 30.41 29.32 34.21 28.8 34.21"/><polygon class="cls-168" points="28.28 34.21 24.77 31.27 24.77 30.84 28.8 34.21 28.28 34.21"/><polygon class="cls-169" points="27.76 34.21 24.77 31.71 24.77 31.27 28.28 34.21 27.76 34.21"/><polygon class="cls-170" points="27.25 34.21 24.77 32.14 24.77 31.71 27.76 34.21 27.25 34.21"/><polygon class="cls-171" points="26.73 34.21 24.77 32.57 24.77 32.14 27.25 34.21 26.73 34.21"/><polygon class="cls-80" points="26.21 34.21 24.77 33.01 24.77 32.57 26.73 34.21 26.21 34.21"/><polygon class="cls-81" points="25.69 34.21 24.77 33.44 24.77 33.01 26.21 34.21 25.69 34.21"/><polygon class="cls-82" points="25.18 34.21 24.77 33.87 24.77 33.44 25.69 34.21 25.18 34.21"/><polygon class="cls-83" points="24.77 33.87 25.18 34.21 24.77 34.21 24.77 33.87"/></g></g></g></svg>