<svg xmlns="http://www.w3.org/2000/svg" xmlns:xlink="http://www.w3.org/1999/xlink" viewBox="0 0 66.77 92.54"><defs><style>.cls-1{fill:url(#linear-gradient);}.cls-2{fill:url(#linear-gradient-2);}.cls-3{fill:url(#linear-gradient-3);}</style><linearGradient id="linear-gradient" x1="29.79" y1="10.92" x2="-17.29" y2="67.2" gradientUnits="userSpaceOnUse"><stop offset="0" stop-color="#1ecf72"/><stop offset="1" stop-color="#a45bd6"/></linearGradient><linearGradient id="linear-gradient-2" x1="44.73" y1="23.42" x2="-2.36" y2="79.7" xlink:href="#linear-gradient"/><linearGradient id="linear-gradient-3" x1="57.11" y1="33.77" x2="10.03" y2="90.05" xlink:href="#linear-gradient"/></defs><title>logo-purple-green</title><g id="Layer_2" data-name="Layer 2"><g id="Layer_1-2" data-name="Layer 1"><path class="cls-1" d="M8.31,16.46c.57,0,1.14-.08,1.72-.08H64.16A28.35,28.35,0,0,0,38.56,0H0A20.55,20.55,0,0,0,8.31,16.46Z"/><path class="cls-2" d="M0,72A20.62,20.62,0,0,0,20.31,92.54V36.94H0Z"/><path class="cls-3" d="M51.16,36.94H40.88V56.45A28.52,28.52,0,0,0,66.77,29.71,20.51,20.51,0,0,1,51.16,36.94Z"/></g></g></svg>