<svg xmlns="http://www.w3.org/2000/svg" xmlns:xlink="http://www.w3.org/1999/xlink" viewBox="0 0 74.96 103.89"><defs><style>.cls-1{fill:url(#linear-gradient);}.cls-2{fill:url(#linear-gradient-2);}.cls-3{fill:url(#linear-gradient-3);}</style><linearGradient id="linear-gradient" x1="52.87" y1="-9.03" x2="-16.71" y2="66.2" gradientUnits="userSpaceOnUse"><stop offset="0" stop-color="#4d148c"/><stop offset="1" stop-color="#a45bd6"/></linearGradient><linearGradient id="linear-gradient-2" x1="71.25" y1="7.98" x2="1.67" y2="83.2" xlink:href="#linear-gradient"/><linearGradient id="linear-gradient-3" x1="82.77" y1="18.63" x2="13.19" y2="93.86" xlink:href="#linear-gradient"/></defs><title>logo-purple</title><g id="Layer_2" data-name="Layer 2"><g id="Layer_1-2" data-name="Layer 1"><path class="cls-1" d="M9.33,18.48c.64-.05,1.28-.09,1.93-.09H72A31.84,31.84,0,0,0,43.29,0H0A23.08,23.08,0,0,0,9.33,18.48Z"/><path class="cls-2" d="M0,80.82a23.14,23.14,0,0,0,22.8,23.07V41.48H0Z"/><path class="cls-3" d="M57.44,41.48H45.89v21.9A32,32,0,0,0,75,33.36,23.06,23.06,0,0,1,57.44,41.48Z"/></g></g></svg>