<svg xmlns="http://www.w3.org/2000/svg" xmlns:xlink="http://www.w3.org/1999/xlink" viewBox="0 0 160.46 203.53"><defs><style>.cls-1{mask:url(#mask);filter:url(#luminosity-noclip-3);}.cls-2,.cls-4,.cls-7,.cls-9{mix-blend-mode:multiply;}.cls-2{fill:url(#radial-gradient);}.cls-3{mask:url(#mask-2);filter:url(#luminosity-noclip-4);}.cls-4{fill:url(#linear-gradient);}.cls-5{isolation:isolate;}.cls-6{mask:url(#mask-3);}.cls-7{opacity:0.8;fill:url(#radial-gradient-2);}.cls-8{fill:url(#linear-gradient-2);}.cls-9{fill:#d0d2d3;}.cls-10{mix-blend-mode:screen;}.cls-11{mask:url(#mask-4);}.cls-12{fill:url(#linear-gradient-3);}.cls-13{fill:#fff;}.cls-14{filter:url(#luminosity-noclip-2);}.cls-15{filter:url(#luminosity-noclip);}</style><filter id="luminosity-noclip" x="0" y="-5033.53" width="160.46" height="32766" filterUnits="userSpaceOnUse" color-interpolation-filters="sRGB"><feFlood flood-color="#fff" result="bg"/><feBlend in="SourceGraphic" in2="bg"/></filter><mask id="mask" x="0" y="-5033.53" width="160.46" height="32766" maskUnits="userSpaceOnUse"><g class="cls-15"/></mask><radialGradient id="radial-gradient" cx="-134.92" cy="8654.78" r="59.27" gradientTransform="translate(262.86 -2760.99) scale(1.35 0.34)" gradientUnits="userSpaceOnUse"><stop offset="0" stop-color="#fff"/><stop offset="0.15" stop-color="#c7c7c7"/><stop offset="0.32" stop-color="#8b8b8b"/><stop offset="0.48" stop-color="#595959"/><stop offset="0.64" stop-color="#333"/><stop offset="0.78" stop-color="#171717"/><stop offset="0.91" stop-color="#060606"/><stop offset="1"/></radialGradient><filter id="luminosity-noclip-2" x="80.39" y="-5033.53" width="57.48" height="32766" filterUnits="userSpaceOnUse" color-interpolation-filters="sRGB"><feFlood flood-color="#fff" result="bg"/><feBlend in="SourceGraphic" in2="bg"/></filter><mask id="mask-2" x="80.39" y="-5033.53" width="57.48" height="32766" maskUnits="userSpaceOnUse"><g class="cls-14"/></mask><linearGradient id="linear-gradient" x1="109.13" y1="6.7" x2="109.13" y2="101.69" gradientUnits="userSpaceOnUse"><stop offset="0" stop-color="#fff"/><stop offset="0.01" stop-color="#f6f6f6"/><stop offset="0.05" stop-color="#c8c8c8"/><stop offset="0.09" stop-color="#9d9d9d"/><stop offset="0.14" stop-color="#777"/><stop offset="0.2" stop-color="#575757"/><stop offset="0.25" stop-color="#3b3b3b"/><stop offset="0.32" stop-color="#252525"/><stop offset="0.4" stop-color="#141414"/><stop offset="0.49" stop-color="#090909"/><stop offset="0.63" stop-color="#020202"/><stop offset="1"/></linearGradient><filter id="luminosity-noclip-3" x="0" y="163.2" width="160.46" height="40.32" filterUnits="userSpaceOnUse" color-interpolation-filters="sRGB"><feFlood flood-color="#fff" result="bg"/><feBlend in="SourceGraphic" in2="bg"/></filter><mask id="mask-3" x="0" y="163.2" width="160.46" height="40.32" maskUnits="userSpaceOnUse"><g class="cls-1"><path class="cls-2" d="M160.46,183.37c0,11.13-35.92,20.16-80.23,20.16S0,194.5,0,183.37,35.92,163.2,80.23,163.2,160.46,172.23,160.46,183.37Z"/></g></mask><radialGradient id="radial-gradient-2" cx="-134.92" cy="8654.78" r="59.27" gradientTransform="translate(262.86 -2760.99) scale(1.35 0.34)" gradientUnits="userSpaceOnUse"><stop offset="0" stop-color="#231f20"/><stop offset="1" stop-color="#231f20"/></radialGradient><linearGradient id="linear-gradient-2" x1="131.11" y1="38.97" x2="43.13" y2="112.91" gradientUnits="userSpaceOnUse"><stop offset="0" stop-color="#4d148c"/><stop offset="0.55" stop-color="#a45bd6"/><stop offset="1" stop-color="#4d148c"/></linearGradient><filter id="luminosity-noclip-4" x="80.39" y="6.7" width="57.48" height="87.03" filterUnits="userSpaceOnUse" color-interpolation-filters="sRGB"><feFlood flood-color="#fff" result="bg"/><feBlend in="SourceGraphic" in2="bg"/></filter><mask id="mask-4" x="80.39" y="6.7" width="57.48" height="87.03" maskUnits="userSpaceOnUse"><g class="cls-3"><path class="cls-4" d="M126.64,93.73l-.85-1.07a2,2,0,0,1,0-2.41l.11-.15C127,88.33,134,76.4,134,62.27A51.78,51.78,0,0,0,82.31,10.55a1.93,1.93,0,0,1,0-3.85,55.63,55.63,0,0,1,55.57,55.57,57.88,57.88,0,0,1-4.45,21.32,62.75,62.75,0,0,1-3.06,6.48c-1.6,2.93-1.81,3-2.44,3.22Z"/></g></mask><linearGradient id="linear-gradient-3" x1="109.13" y1="6.7" x2="109.13" y2="101.69" gradientUnits="userSpaceOnUse"><stop offset="0" stop-color="#fff"/><stop offset="0.09" stop-color="#fff" stop-opacity="0.94"/><stop offset="0.27" stop-color="#fff" stop-opacity="0.79"/><stop offset="0.51" stop-color="#fff" stop-opacity="0.55"/><stop offset="0.81" stop-color="#fff" stop-opacity="0.22"/><stop offset="1" stop-color="#fff" stop-opacity="0"/></linearGradient></defs><title>logo-balloon-shadow</title><g class="cls-5"><g id="Layer_2" data-name="Layer 2"><g id="Layer_1-2" data-name="Layer 1"><g class="cls-6"><path class="cls-7" d="M160.46,183.37c0,11.13-35.92,20.16-80.23,20.16S0,194.5,0,183.37,35.92,163.2,80.23,163.2,160.46,172.23,160.46,183.37Z"/></g><path class="cls-8" d="M145.28,66A66,66,0,1,0,25.64,104.55h0l53.62,80.77,54.64-82.22c.11-.15.21-.31.31-.47l.58-.87h0A65.65,65.65,0,0,0,145.28,66Z"/><path class="cls-9" d="M145.28,66A66,66,0,1,0,25.64,104.55h0l53.62,80.77,54.64-82.22c.11-.15.21-.31.31-.47l.58-.87h0A65.65,65.65,0,0,0,145.28,66Z"/><g class="cls-10"><g class="cls-11"><path class="cls-12" d="M126.64,93.73l-.85-1.07a2,2,0,0,1,0-2.41l.11-.15C127,88.33,134,76.4,134,62.27A51.78,51.78,0,0,0,82.31,10.55a1.93,1.93,0,0,1,0-3.85,55.63,55.63,0,0,1,55.57,55.57,57.88,57.88,0,0,1-4.45,21.32,62.75,62.75,0,0,1-3.06,6.48c-1.6,2.93-1.81,3-2.44,3.22Z"/></g></g><path class="cls-13" d="M59.36,48.88c.52-.05,1-.08,1.57-.08h49.38A25.84,25.84,0,0,0,87,33.82H51.78A18.84,18.84,0,0,0,59.36,48.88Z"/><path class="cls-13" d="M51.78,99.66a18.83,18.83,0,0,0,18.53,18.8V67.61H51.78Z"/><path class="cls-13" d="M98.45,67.61H89.07V85.45A26,26,0,0,0,112.68,61,18.7,18.7,0,0,1,98.45,67.61Z"/></g></g></g></svg>